<svg width="283" height="94" viewBox="0 0 283 94" fill="none" xmlns="http://www.w3.org/2000/svg">
<rect width="282.183" height="93.5412" rx="24.9443" fill="#262626" fill-opacity="0.3"/>
<rect x="0.5" y="0.5" width="281.183" height="92.5412" rx="24.4443" stroke="white" stroke-opacity="0.1"/>
<path d="M21.6127 36.7085H19.9867V23.5269H21.5853L28.8018 33.8767H28.8841V23.5269H30.5101V36.7085H28.9115L21.6949 26.3952H21.6127V36.7085ZM36.6304 28.4232C35.1415 28.4232 34.1001 29.565 33.9996 31.1454H39.1608C39.1243 29.5559 38.1286 28.4232 36.6304 28.4232ZM39.1243 33.9863H40.6863C40.4123 35.6488 38.8045 36.8729 36.7309 36.8729C34.0087 36.8729 32.3553 34.982 32.3553 31.9949C32.3553 29.0443 34.0361 27.0438 36.6578 27.0438C39.2247 27.0438 40.8051 28.9073 40.8051 31.7848V32.3877H33.9905V32.479C33.9905 34.2969 35.0592 35.4936 36.7675 35.4936C37.9733 35.4936 38.8594 34.8815 39.1243 33.9863ZM45.5918 33.0911H45.5552L43.2624 36.7085H41.4993L44.7331 31.9584L41.5541 27.2082H43.3263L45.61 30.7708H45.6466L47.9029 27.2082H49.6751L46.4687 31.8944L49.6294 36.7085H47.8664L45.5918 33.0911ZM51.5294 24.9154H53.1189V27.2082H54.9642V28.5145H53.1189V34.1599C53.1189 35.0277 53.4843 35.4205 54.2973 35.4205C54.48 35.4205 54.8454 35.3931 54.955 35.3748V36.7085C54.7632 36.7542 54.3247 36.7816 53.9502 36.7816C52.2054 36.7816 51.5294 36.0691 51.5294 34.2421V28.5145H50.1135V27.2082H51.5294V24.9154ZM65.7251 36.7085H64.0808V25.0067H59.9244V23.5269H69.8814V25.0067H65.7251V36.7085ZM72.8411 36.8729C70.2103 36.8729 68.4381 34.982 68.4381 31.9584C68.4381 28.9256 70.2103 27.0438 72.8411 27.0438C75.4628 27.0438 77.235 28.9256 77.235 31.9584C77.235 34.982 75.4628 36.8729 72.8411 36.8729ZM72.8411 35.4753C74.5219 35.4753 75.6181 34.1964 75.6181 31.9584C75.6181 29.7203 74.5219 28.4414 72.8411 28.4414C71.1603 28.4414 70.055 29.7203 70.055 31.9584C70.055 34.1964 71.1603 35.4753 72.8411 35.4753ZM84.817 32.1045H78.8245V30.6247H84.817V32.1045ZM87.1098 23.5269H91.5402C95.45 23.5269 97.7611 25.9659 97.7611 30.1131C97.7611 34.2695 95.4591 36.7085 91.5402 36.7085H87.1098V23.5269ZM88.7541 25.0067V35.2286H91.4306C94.4177 35.2286 96.0803 33.4017 96.0803 30.1314C96.0803 26.8337 94.4269 25.0067 91.4306 25.0067H88.7541ZM103.498 36.8729C100.867 36.8729 99.0948 34.982 99.0948 31.9584C99.0948 28.9256 100.867 27.0438 103.498 27.0438C106.12 27.0438 107.892 28.9256 107.892 31.9584C107.892 34.982 106.12 36.8729 103.498 36.8729ZM103.498 35.4753C105.179 35.4753 106.275 34.1964 106.275 31.9584C106.275 29.7203 105.179 28.4414 103.498 28.4414C101.817 28.4414 100.712 29.7203 100.712 31.9584C100.712 34.1964 101.817 35.4753 103.498 35.4753Z" fill="white" fill-opacity="0.6"/>
<path d="M22.6053 55.1443V61.8797H26.8074C29.0607 61.8797 30.3395 60.6617 30.3395 58.5059C30.3395 56.3988 28.9754 55.1443 26.71 55.1443H22.6053ZM22.6053 63.8163V70.771H20.413V53.1955H27.0023C30.3883 53.1955 32.605 55.266 32.605 58.4328C32.605 60.881 31.2774 62.781 29.0728 63.4753L33.1409 70.771H30.571L26.8074 63.8163H22.6053ZM40.12 59.7239C38.1347 59.7239 36.7461 61.2464 36.6122 63.3535H43.4938C43.4451 61.2342 42.1175 59.7239 40.12 59.7239ZM43.4451 67.1414H45.5278C45.1624 69.3581 43.0188 70.9902 40.2539 70.9902C36.6244 70.9902 34.4198 68.469 34.4198 64.4862C34.4198 60.5521 36.6609 57.8847 40.1565 57.8847C43.579 57.8847 45.6862 60.3694 45.6862 64.2061V65.0099H36.6V65.1317C36.6 67.5555 38.025 69.1511 40.3027 69.1511C41.9104 69.1511 43.0919 68.335 43.4451 67.1414ZM47.8298 70.771V58.104H49.8273V60.1258H49.876C50.5825 58.7617 51.9344 57.8847 53.8954 57.8847C56.6724 57.8847 58.2801 59.6752 58.2801 62.5496V70.771H56.1608V62.9272C56.1608 60.881 55.1986 59.7604 53.2498 59.7604C51.2523 59.7604 49.9491 61.1733 49.9491 63.3169V70.771H47.8298ZM66.063 59.7239C64.0777 59.7239 62.6892 61.2464 62.5553 63.3535H69.4369C69.3881 61.2342 68.0605 59.7239 66.063 59.7239ZM69.3881 67.1414H71.4709C71.1055 69.3581 68.9619 70.9902 66.197 70.9902C62.5674 70.9902 60.3629 68.469 60.3629 64.4862C60.3629 60.5521 62.604 57.8847 66.0996 57.8847C69.5221 57.8847 71.6292 60.3694 71.6292 64.2061V65.0099H62.5431V65.1317C62.5431 67.5555 63.9681 69.1511 66.2457 69.1511C67.8535 69.1511 69.0349 68.335 69.3881 67.1414ZM89.8868 58.104L86.3547 70.771H84.1988L81.3366 60.9662H81.2879L78.4378 70.771H76.2819L72.7376 58.104H74.8447L77.3781 68.4081H77.4268L80.2891 58.104H82.3353L85.2098 68.4081H85.2585L87.7919 58.104H89.8868ZM104.308 71.0633C99.4602 71.0633 96.3909 67.5433 96.3909 61.9771C96.3909 56.4597 99.4967 52.9032 104.308 52.9032C108.132 52.9032 111.043 55.2295 111.603 58.7373H109.387C108.826 56.4353 106.817 54.925 104.308 54.925C100.873 54.925 98.6441 57.702 98.6441 61.9771C98.6441 66.2888 100.849 69.0415 104.32 69.0415C106.902 69.0415 108.753 67.7991 109.387 65.6555H111.603C110.8 69.1267 108.193 71.0633 104.308 71.0633ZM118.047 69.1876C120.044 69.1876 121.579 67.7869 121.579 65.96V64.9247L118.193 65.1317C116.488 65.2413 115.513 65.9965 115.513 67.1901C115.513 68.3959 116.524 69.1876 118.047 69.1876ZM117.572 70.9902C115.05 70.9902 113.357 69.4678 113.357 67.1901C113.357 65.0221 115.026 63.658 117.949 63.4874L121.579 63.2804V62.2207C121.579 60.6739 120.556 59.7482 118.802 59.7482C117.17 59.7482 116.147 60.5156 115.879 61.7579H113.832C113.979 59.5655 115.854 57.8847 118.851 57.8847C121.822 57.8847 123.698 59.4925 123.698 62.0137V70.771H121.688V68.5908H121.64C120.885 70.0402 119.277 70.9902 117.572 70.9902ZM126.39 70.771V58.104H128.387V60.1745H128.436C128.85 58.7738 130.019 57.8847 131.505 57.8847C131.871 57.8847 132.187 57.9456 132.358 57.97V60.0284C132.187 59.9675 131.737 59.9066 131.225 59.9066C129.581 59.9066 128.509 61.088 128.509 62.8785V70.771H126.39ZM139.313 70.771V58.104H141.432V70.771H139.313ZM140.372 55.9725C139.654 55.9725 139.057 55.3757 139.057 54.6571C139.057 53.9263 139.654 53.3416 140.372 53.3416C141.103 53.3416 141.7 53.9263 141.7 54.6571C141.7 55.3757 141.103 55.9725 140.372 55.9725ZM144.294 70.771V58.104H146.292V60.1258H146.34C147.047 58.7617 148.399 57.8847 150.36 57.8847C153.137 57.8847 154.745 59.6752 154.745 62.5496V70.771H152.625V62.9272C152.625 60.881 151.663 59.7604 149.714 59.7604C147.717 59.7604 146.414 61.1733 146.414 63.3169V70.771H144.294ZM157.229 61.5996C157.229 59.4316 159.166 57.8847 161.955 57.8847C164.574 57.8847 166.498 59.4437 166.596 61.5874H164.574C164.428 60.3694 163.441 59.6143 161.882 59.6143C160.335 59.6143 159.312 60.3816 159.312 61.49C159.312 62.3669 159.982 62.9515 161.419 63.3169L163.38 63.7919C165.938 64.4375 166.863 65.3631 166.863 67.2267C166.863 69.4312 164.781 70.9902 161.821 70.9902C159.044 70.9902 157.107 69.4799 156.888 67.2388H159.007C159.239 68.5543 160.238 69.2607 161.955 69.2607C163.672 69.2607 164.732 68.5299 164.732 67.385C164.732 66.4837 164.208 65.9965 162.783 65.6189L160.554 65.0465C158.325 64.474 157.229 63.3291 157.229 61.5996ZM179.47 58.104V70.771H177.46V68.7126H177.411C176.656 70.1742 175.341 70.9902 173.392 70.9902C170.627 70.9902 169.007 69.1998 169.007 66.3254V58.104H171.126V65.9478C171.126 68.0062 172.089 69.1145 174.05 69.1145C176.108 69.1145 177.35 67.7017 177.35 65.5458V58.104H179.47ZM182.222 70.771V58.104H184.22V60.1745H184.268C184.683 58.7738 185.852 57.8847 187.338 57.8847C187.703 57.8847 188.02 57.9456 188.19 57.97V60.0284C188.02 59.9675 187.569 59.9066 187.058 59.9066C185.413 59.9066 184.342 61.088 184.342 62.8785V70.771H182.222ZM193.854 69.1876C195.852 69.1876 197.386 67.7869 197.386 65.96V64.9247L194 65.1317C192.295 65.2413 191.321 65.9965 191.321 67.1901C191.321 68.3959 192.332 69.1876 193.854 69.1876ZM193.379 70.9902C190.858 70.9902 189.165 69.4678 189.165 67.1901C189.165 65.0221 190.833 63.658 193.757 63.4874L197.386 63.2804V62.2207C197.386 60.6739 196.363 59.7482 194.609 59.7482C192.977 59.7482 191.954 60.5156 191.686 61.7579H189.64C189.786 59.5655 191.662 57.8847 194.658 57.8847C197.63 57.8847 199.505 59.4925 199.505 62.0137V70.771H197.496V68.5908H197.447C196.692 70.0402 195.084 70.9902 193.379 70.9902ZM202.197 70.771V58.104H204.195V60.1258H204.243C204.95 58.7617 206.302 57.8847 208.263 57.8847C211.04 57.8847 212.648 59.6752 212.648 62.5496V70.771H210.528V62.9272C210.528 60.881 209.566 59.7604 207.617 59.7604C205.62 59.7604 204.317 61.1733 204.317 63.3169V70.771H202.197ZM225.875 62.2573H223.804C223.5 60.881 222.428 59.7482 220.564 59.7482C218.372 59.7482 216.886 61.563 216.886 64.4375C216.886 67.385 218.396 69.1267 220.589 69.1267C222.318 69.1267 223.451 68.2132 223.816 66.6907H225.899C225.57 69.212 223.451 70.9902 220.577 70.9902C217.069 70.9902 214.73 68.5177 214.73 64.4375C214.73 60.4425 217.057 57.8847 220.552 57.8847C223.719 57.8847 225.607 59.9797 225.875 62.2573ZM232.927 59.7239C230.942 59.7239 229.553 61.2464 229.419 63.3535H236.301C236.252 61.2342 234.924 59.7239 232.927 59.7239ZM236.252 67.1414H238.335C237.969 69.3581 235.826 70.9902 233.061 70.9902C229.431 70.9902 227.227 68.469 227.227 64.4862C227.227 60.5521 229.468 57.8847 232.964 57.8847C236.386 57.8847 238.493 60.3694 238.493 64.2061V65.0099H229.407V65.1317C229.407 67.5555 230.832 69.1511 233.11 69.1511C234.717 69.1511 235.899 68.335 236.252 67.1414Z" fill="white"/>
</svg>
