<svg width="398" height="198" viewBox="0 0 398 198" fill="none" xmlns="http://www.w3.org/2000/svg">
<path d="M0 24.9444C0 11.168 11.168 0 24.9443 0H373.056C386.832 0 398 11.168 398 24.9443V192.247C398 206.023 386.832 217.191 373.056 217.191H24.9443C11.168 217.191 0 206.023 0 192.247V24.9444Z" fill="#262626" fill-opacity="0.3"/>
<path d="M0.5 24.9444C0.5 11.4441 11.4441 0.5 24.9443 0.5H373.056C386.556 0.5 397.5 11.4441 397.5 24.9443V192.247C397.5 205.747 386.556 216.691 373.056 216.691H24.9443C11.4441 216.691 0.5 205.747 0.5 192.247V24.9444Z" stroke="white" stroke-opacity="0.1"/>
<path opacity="0.6" d="M22.9539 25.7281H26.087C28.8519 25.7281 30.4862 27.4529 30.4862 30.3857C30.4862 33.325 28.8583 35.0498 26.087 35.0498H22.9539V25.7281ZM24.1167 26.7746V34.0033H26.0095C28.1219 34.0033 29.2976 32.7113 29.2976 30.3987C29.2976 28.0666 28.1283 26.7746 26.0095 26.7746H24.1167ZM37.2756 28.3315V35.0498H36.2097V33.9581H36.1839C35.7834 34.7333 35.0857 35.1661 34.0521 35.1661C32.5857 35.1661 31.7265 34.2165 31.7265 32.6919V28.3315H32.8505V32.4917C32.8505 33.5834 33.3609 34.1713 34.4009 34.1713C35.4927 34.1713 36.1516 33.4219 36.1516 32.2785V28.3315H37.2756ZM42.0753 35.1661C41.0934 35.1661 40.3247 34.688 39.8919 33.9129H39.866V35.0498H38.7937V25.7281H39.9177V29.4555H39.9435C40.3634 28.6868 41.1451 28.2152 42.0947 28.2152C43.7872 28.2152 44.9306 29.5847 44.9306 31.6906C44.9306 33.803 43.7937 35.1661 42.0753 35.1661ZM41.8557 29.2036C40.7187 29.2036 39.9112 30.1984 39.9112 31.6906C39.9112 33.1893 40.7187 34.1777 41.8557 34.1777C43.0443 34.1777 43.7807 33.2281 43.7807 31.6906C43.7807 30.1661 43.0443 29.2036 41.8557 29.2036ZM48.2898 34.21C49.3492 34.21 50.1631 33.4671 50.1631 32.4981V31.949L48.3673 32.0589C47.4629 32.117 46.9461 32.5175 46.9461 33.1506C46.9461 33.7901 47.4823 34.21 48.2898 34.21ZM48.0378 35.1661C46.7006 35.1661 45.8027 34.3586 45.8027 33.1506C45.8027 32.0007 46.6877 31.2772 48.2381 31.1868L50.1631 31.077V30.5149C50.1631 29.6945 49.6205 29.2036 48.6903 29.2036C47.8246 29.2036 47.282 29.6106 47.1399 30.2695H46.0546C46.1321 29.1067 47.127 28.2152 48.7161 28.2152C50.2923 28.2152 51.2872 29.0679 51.2872 30.4051V35.0498H50.2213V33.8935H50.1954C49.7949 34.6622 48.9422 35.1661 48.0378 35.1661ZM52.7729 35.0498V28.3315H53.897V35.0498H52.7729ZM53.335 27.201C52.9538 27.201 52.6373 26.8845 52.6373 26.5033C52.6373 26.1157 52.9538 25.8057 53.335 25.8057C53.7225 25.8057 54.0391 26.1157 54.0391 26.5033C54.0391 26.8845 53.7225 27.201 53.335 27.201Z" fill="white"/>
<path d="M159.375 34.0033V35.0498H153.599V25.7281H159.375V26.7746H154.762V29.7656H159.136V30.7992H154.762V34.0033H159.375ZM160.738 35.0498V28.3315H161.797V29.4038H161.823C162.139 28.6932 162.824 28.2152 163.729 28.2152C164.646 28.2152 165.324 28.6803 165.615 29.4943H165.641C166.015 28.6932 166.803 28.2152 167.747 28.2152C169.077 28.2152 169.937 29.0808 169.937 30.4116V35.0498H168.812V30.67C168.812 29.7527 168.302 29.21 167.417 29.21C166.526 29.21 165.899 29.8689 165.899 30.7798V35.0498H164.775V30.5472C164.775 29.7398 164.232 29.21 163.399 29.21C162.508 29.21 161.862 29.9077 161.862 30.8379V35.0498H160.738ZM171.429 35.0498V28.3315H172.553V35.0498H171.429ZM171.991 27.201C171.61 27.201 171.293 26.8845 171.293 26.5033C171.293 26.1157 171.61 25.8057 171.991 25.8057C172.378 25.8057 172.695 26.1157 172.695 26.5033C172.695 26.8845 172.378 27.201 171.991 27.201ZM174.071 35.0498V28.3315H175.13V29.4297H175.156C175.376 28.6868 175.996 28.2152 176.784 28.2152C176.978 28.2152 177.146 28.2475 177.236 28.2604V29.3522C177.146 29.3199 176.907 29.2876 176.635 29.2876C175.763 29.2876 175.195 29.9142 175.195 30.8638V35.0498H174.071ZM180.24 34.21C181.3 34.21 182.113 33.4671 182.113 32.4981V31.949L180.318 32.0589C179.413 32.117 178.896 32.5175 178.896 33.1506C178.896 33.7901 179.433 34.21 180.24 34.21ZM179.988 35.1661C178.651 35.1661 177.753 34.3586 177.753 33.1506C177.753 32.0007 178.638 31.2772 180.188 31.1868L182.113 31.077V30.5149C182.113 29.6945 181.571 29.2036 180.641 29.2036C179.775 29.2036 179.232 29.6106 179.09 30.2695H178.005C178.082 29.1067 179.077 28.2152 180.666 28.2152C182.243 28.2152 183.237 29.0679 183.237 30.4051V35.0498H182.172V33.8935H182.146C181.745 34.6622 180.893 35.1661 179.988 35.1661ZM185.027 26.71H186.151V28.3315H187.456V29.2553H186.151V33.2475C186.151 33.8612 186.409 34.139 186.984 34.139C187.113 34.139 187.372 34.1196 187.449 34.1067V35.0498C187.314 35.0821 187.004 35.1015 186.739 35.1015C185.505 35.1015 185.027 34.5976 185.027 33.3056V29.2553H184.026V28.3315H185.027V26.71ZM191.157 29.1907C190.104 29.1907 189.368 29.9981 189.297 31.1157H192.947C192.921 29.9917 192.217 29.1907 191.157 29.1907ZM192.921 33.1247H194.026C193.832 34.3005 192.695 35.1661 191.228 35.1661C189.303 35.1661 188.134 33.8289 188.134 31.7165C188.134 29.6299 189.323 28.2152 191.177 28.2152C192.992 28.2152 194.11 29.533 194.11 31.5679V31.9943H189.29V32.0589C189.29 33.3444 190.046 34.1906 191.254 34.1906C192.107 34.1906 192.734 33.7578 192.921 33.1247ZM195.13 30.1855C195.13 29.0356 196.157 28.2152 197.637 28.2152C199.026 28.2152 200.046 29.0421 200.098 30.179H199.026C198.948 29.533 198.425 29.1325 197.598 29.1325C196.777 29.1325 196.235 29.5395 196.235 30.1273C196.235 30.5925 196.59 30.9025 197.352 31.0963L198.392 31.3483C199.749 31.6906 200.24 32.1816 200.24 33.17C200.24 34.3392 199.135 35.1661 197.566 35.1661C196.093 35.1661 195.066 34.3651 194.949 33.1764H196.073C196.196 33.8741 196.726 34.2488 197.637 34.2488C198.548 34.2488 199.11 33.8612 199.11 33.2539C199.11 32.7759 198.832 32.5175 198.076 32.3173L196.894 32.0136C195.712 31.71 195.13 31.1028 195.13 30.1855ZM210.356 35.0498L209.42 32.3819H205.712L204.775 35.0498H203.554L206.991 25.7281H208.14L211.577 35.0498H210.356ZM207.546 27.1429L206.054 31.3935H209.077L207.585 27.1429H207.546ZM212.527 35.0498V28.3315H213.651V35.0498H212.527ZM213.089 27.201C212.708 27.201 212.391 26.8845 212.391 26.5033C212.391 26.1157 212.708 25.8057 213.089 25.8057C213.476 25.8057 213.793 26.1157 213.793 26.5033C213.793 26.8845 213.476 27.201 213.089 27.201ZM215.169 35.0498V28.3315H216.228V29.4297H216.254C216.474 28.6868 217.094 28.2152 217.882 28.2152C218.076 28.2152 218.244 28.2475 218.334 28.2604V29.3522C218.244 29.3199 218.005 29.2876 217.733 29.2876C216.861 29.2876 216.293 29.9142 216.293 30.8638V35.0498H215.169ZM219.31 35.0498V25.7281H220.434V35.0498H219.31ZM222.01 35.0498V28.3315H223.134V35.0498H222.01ZM222.572 27.201C222.191 27.201 221.874 26.8845 221.874 26.5033C221.874 26.1157 222.191 25.8057 222.572 25.8057C222.96 25.8057 223.276 26.1157 223.276 26.5033C223.276 26.8845 222.96 27.201 222.572 27.201ZM224.652 35.0498V28.3315H225.711V29.4038H225.737C226.112 28.6803 226.829 28.2152 227.869 28.2152C229.342 28.2152 230.195 29.1648 230.195 30.6894V35.0498H229.071V30.8896C229.071 29.8043 228.56 29.21 227.527 29.21C226.467 29.21 225.776 29.9594 225.776 31.0963V35.0498H224.652ZM234.323 29.1907C233.27 29.1907 232.533 29.9981 232.462 31.1157H236.112C236.086 29.9917 235.382 29.1907 234.323 29.1907ZM236.086 33.1247H237.191C236.997 34.3005 235.86 35.1661 234.394 35.1661C232.469 35.1661 231.299 33.8289 231.299 31.7165C231.299 29.6299 232.488 28.2152 234.342 28.2152C236.157 28.2152 237.275 29.533 237.275 31.5679V31.9943H232.456V32.0589C232.456 33.3444 233.211 34.1906 234.419 34.1906C235.272 34.1906 235.899 33.7578 236.086 33.1247ZM238.295 30.1855C238.295 29.0356 239.323 28.2152 240.802 28.2152C242.191 28.2152 243.211 29.0421 243.263 30.179H242.191C242.113 29.533 241.59 29.1325 240.763 29.1325C239.943 29.1325 239.4 29.5395 239.4 30.1273C239.4 30.5925 239.755 30.9025 240.518 31.0963L241.558 31.3483C242.914 31.6906 243.405 32.1816 243.405 33.17C243.405 34.3392 242.301 35.1661 240.731 35.1661C239.258 35.1661 238.231 34.3651 238.115 33.1764H239.239C239.361 33.8741 239.891 34.2488 240.802 34.2488C241.713 34.2488 242.275 33.8612 242.275 33.2539C242.275 32.7759 241.997 32.5175 241.241 32.3173L240.059 32.0136C238.877 31.71 238.295 31.1028 238.295 30.1855Z" fill="white"/>
<path opacity="0.6" d="M26.0816 100.225C28.2834 100.225 29.6615 101.775 29.6615 104.241C29.6615 106.706 28.2834 108.251 26.0816 108.251C23.8799 108.251 22.5018 106.706 22.5018 104.241C22.5018 101.775 23.8799 100.225 26.0816 100.225ZM26.0816 101.118C24.4936 101.118 23.4977 102.324 23.4977 104.241C23.4977 106.152 24.4936 107.358 26.0816 107.358C27.6697 107.358 28.6656 106.152 28.6656 104.241C28.6656 102.324 27.6697 101.118 26.0816 101.118ZM35.3731 104.359H34.458C34.3234 103.751 33.8497 103.25 33.026 103.25C32.0571 103.25 31.4003 104.052 31.4003 105.323C31.4003 106.626 32.0678 107.395 33.0368 107.395C33.8012 107.395 34.3019 106.992 34.4634 106.319H35.3839C35.2386 107.433 34.3019 108.219 33.0314 108.219C31.481 108.219 30.4475 107.126 30.4475 105.323C30.4475 103.557 31.4757 102.427 33.0207 102.427C34.4203 102.427 35.2547 103.352 35.3731 104.359ZM36.5467 101.172H37.4834V102.523H38.5708V103.293H37.4834V106.62C37.4834 107.132 37.6987 107.363 38.1778 107.363C38.2855 107.363 38.5008 107.347 38.5654 107.336V108.122C38.4524 108.149 38.194 108.165 37.9733 108.165C36.9451 108.165 36.5467 107.745 36.5467 106.669V103.293H35.7123V102.523H36.5467V101.172ZM45.5475 108.122V106.507H41.6447V105.63C42.3068 104.402 43.2166 102.986 45.0523 100.354H46.4842V105.657H47.5824V106.507H46.4842V108.122H45.5475ZM42.6029 105.635V105.657H45.5475V101.162H45.5314C44.0617 103.261 43.2166 104.558 42.6029 105.635ZM25.3495 120.251C23.7076 120.251 22.5341 119.32 22.5341 118.023C22.5341 117.054 23.2016 116.257 24.2029 116.025V116.004C23.3631 115.745 22.8409 115.083 22.8409 114.265C22.8409 113.092 23.9068 112.225 25.3495 112.225C26.803 112.225 27.8527 113.086 27.8527 114.27C27.8527 115.078 27.3413 115.735 26.4961 116.004V116.025C27.5028 116.262 28.1703 117.059 28.1703 118.023C28.1703 119.325 26.9968 120.251 25.3495 120.251ZM25.3495 119.406C26.4208 119.406 27.1798 118.798 27.1798 117.953C27.1798 117.097 26.4208 116.494 25.3495 116.494C24.2836 116.494 23.5192 117.102 23.5192 117.953C23.5192 118.798 24.2836 119.406 25.3495 119.406ZM25.3495 115.643C26.2539 115.643 26.8945 115.11 26.8945 114.357C26.8945 113.592 26.2593 113.059 25.3495 113.059C24.4397 113.059 23.8045 113.598 23.8045 114.357C23.8045 115.11 24.4397 115.643 25.3495 115.643ZM30.0599 118.83C29.7153 118.83 29.4462 118.561 29.4462 118.216C29.4462 117.872 29.7153 117.603 30.0599 117.603C30.4044 117.603 30.6736 117.872 30.6736 118.216C30.6736 118.561 30.4044 118.83 30.0599 118.83ZM30.0599 114.868C29.7153 114.868 29.4462 114.599 29.4462 114.254C29.4462 113.91 29.7153 113.641 30.0599 113.641C30.4044 113.641 30.6736 113.91 30.6736 114.254C30.6736 114.599 30.4044 114.868 30.0599 114.868ZM32.0409 114.593C32.0409 113.237 33.1391 112.225 34.6033 112.225C35.9922 112.225 37.085 113.167 37.085 114.357C37.085 115.223 36.692 115.869 35.3947 117.21L33.4298 119.239V119.261H37.2142V120.122H32.0894V119.455L34.8241 116.574C35.8684 115.476 36.116 115.062 36.116 114.416C36.116 113.668 35.4324 113.07 34.5764 113.07C33.6667 113.07 32.9776 113.727 32.9776 114.593V114.599H32.0409V114.593ZM41.0525 120.251C39.2383 120.251 38.1886 118.69 38.1886 116.235C38.1886 113.802 39.2491 112.225 41.0525 112.225C42.8559 112.225 43.9056 113.791 43.9056 116.23C43.9056 118.685 42.8613 120.251 41.0525 120.251ZM41.0525 119.406C42.2637 119.406 42.9313 118.173 42.9313 116.235C42.9313 114.324 42.253 113.075 41.0525 113.075C39.852 113.075 39.163 114.335 39.163 116.23C39.163 118.168 39.8359 119.406 41.0525 119.406Z" fill="white"/>
<path opacity="0.6" d="M173.55 116.487H172.4V107.166H173.531L178.634 114.485H178.692V107.166H179.842V116.487H178.711L173.608 109.194H173.55V116.487ZM184.26 116.604C182.4 116.604 181.147 115.266 181.147 113.128C181.147 110.983 182.4 109.653 184.26 109.653C186.114 109.653 187.368 110.983 187.368 113.128C187.368 115.266 186.114 116.604 184.26 116.604ZM184.26 115.615C185.449 115.615 186.224 114.711 186.224 113.128C186.224 111.545 185.449 110.641 184.26 110.641C183.072 110.641 182.29 111.545 182.29 113.128C182.29 114.711 183.072 115.615 184.26 115.615ZM188.505 116.487V109.769H189.564V110.841H189.59C189.965 110.118 190.682 109.653 191.722 109.653C193.195 109.653 194.047 110.602 194.047 112.127V116.487H192.923V112.327C192.923 111.242 192.413 110.648 191.379 110.648C190.32 110.648 189.629 111.397 189.629 112.534V116.487H188.505ZM199.706 113.232H195.468V112.185H199.706V113.232ZM200.882 113.923H202.051C202.161 114.93 203.117 115.596 204.448 115.596C205.707 115.596 206.625 114.93 206.625 114.013C206.625 113.225 206.076 112.741 204.822 112.418L203.627 112.107C201.909 111.668 201.147 110.912 201.147 109.646C201.147 108.096 202.503 107.011 204.441 107.011C206.295 107.011 207.639 108.109 207.691 109.672H206.528C206.424 108.671 205.617 108.057 204.402 108.057C203.194 108.057 202.355 108.684 202.355 109.595C202.355 110.299 202.871 110.719 204.138 111.048L205.113 111.306C207.045 111.791 207.826 112.534 207.826 113.871C207.826 115.576 206.483 116.642 204.338 116.642C202.361 116.642 200.992 115.57 200.882 113.923ZM209.37 108.148H210.494V109.769H211.799V110.693H210.494V114.685C210.494 115.299 210.753 115.576 211.328 115.576C211.457 115.576 211.715 115.557 211.793 115.544V116.487C211.657 116.52 211.347 116.539 211.082 116.539C209.848 116.539 209.37 116.035 209.37 114.743V110.693H208.369V109.769H209.37V108.148ZM215.591 116.604C213.731 116.604 212.477 115.266 212.477 113.128C212.477 110.983 213.731 109.653 215.591 109.653C217.445 109.653 218.698 110.983 218.698 113.128C218.698 115.266 217.445 116.604 215.591 116.604ZM215.591 115.615C216.78 115.615 217.555 114.711 217.555 113.128C217.555 111.545 216.78 110.641 215.591 110.641C214.402 110.641 213.621 111.545 213.621 113.128C213.621 114.711 214.402 115.615 215.591 115.615ZM223.097 109.653C224.809 109.653 225.972 111.022 225.972 113.128C225.972 115.234 224.816 116.604 223.123 116.604C222.161 116.604 221.386 116.132 220.985 115.396H220.959V118.729H219.835V109.769H220.901V110.906H220.927C221.34 110.15 222.122 109.653 223.097 109.653ZM222.878 115.615C224.073 115.615 224.822 114.653 224.822 113.128C224.822 111.61 224.073 110.641 222.878 110.641C221.728 110.641 220.953 111.636 220.953 113.128C220.953 114.627 221.728 115.615 222.878 115.615Z" fill="white"/>
<path opacity="0.6" d="M289.041 192.706L293.26 184.444V184.418H288.24V183.384H294.409V184.463L290.262 192.706H289.041ZM298.486 192.706V183.384H299.61V187.06H299.636C300.01 186.311 300.747 185.871 301.767 185.871C303.24 185.871 304.132 186.866 304.132 188.365V192.706H303.008V188.572C303.008 187.506 302.471 186.866 301.418 186.866C300.301 186.866 299.61 187.629 299.61 188.791V192.706H298.486ZM308.344 192.822C306.483 192.822 305.23 191.485 305.23 189.347C305.23 187.202 306.483 185.871 308.344 185.871C310.198 185.871 311.451 187.202 311.451 189.347C311.451 191.485 310.198 192.822 308.344 192.822ZM308.344 191.834C309.532 191.834 310.307 190.93 310.307 189.347C310.307 187.764 309.532 186.86 308.344 186.86C307.155 186.86 306.373 187.764 306.373 189.347C306.373 190.93 307.155 191.834 308.344 191.834ZM318.104 185.988V192.706H317.039V191.614H317.013C316.612 192.39 315.915 192.822 314.881 192.822C313.415 192.822 312.555 191.873 312.555 190.348V185.988H313.679V190.148C313.679 191.24 314.19 191.828 315.23 191.828C316.322 191.828 316.98 191.078 316.98 189.935V185.988H318.104ZM319.564 192.706V185.988H320.624V187.086H320.65C320.869 186.343 321.489 185.871 322.278 185.871C322.471 185.871 322.639 185.904 322.73 185.917V187.008C322.639 186.976 322.4 186.944 322.129 186.944C321.257 186.944 320.688 187.57 320.688 188.52V192.706H319.564ZM323.531 187.842C323.531 186.692 324.558 185.871 326.037 185.871C327.426 185.871 328.447 186.698 328.498 187.835H327.426C327.349 187.189 326.825 186.789 325.998 186.789C325.178 186.789 324.635 187.196 324.635 187.784C324.635 188.249 324.991 188.559 325.753 188.753L326.793 189.005C328.15 189.347 328.641 189.838 328.641 190.826C328.641 191.995 327.536 192.822 325.966 192.822C324.493 192.822 323.466 192.021 323.35 190.833H324.474C324.597 191.53 325.126 191.905 326.037 191.905C326.948 191.905 327.51 191.517 327.51 190.91C327.51 190.432 327.232 190.174 326.477 189.974L325.294 189.67C324.112 189.366 323.531 188.759 323.531 187.842ZM334.926 192.706V184.618H334.9L332.433 186.395V185.167L334.913 183.384H336.05V192.706H334.926ZM341.677 192.861C339.5 192.861 338.24 190.988 338.24 188.042C338.24 185.122 339.513 183.229 341.677 183.229C343.841 183.229 345.1 185.109 345.1 188.036C345.1 190.981 343.847 192.861 341.677 192.861ZM341.677 191.847C343.13 191.847 343.931 190.368 343.931 188.042C343.931 185.749 343.117 184.25 341.677 184.25C340.236 184.25 339.409 185.762 339.409 188.036C339.409 190.361 340.217 191.847 341.677 191.847ZM349.125 192.706V185.988H350.184V187.06H350.21C350.527 186.349 351.212 185.871 352.116 185.871C353.033 185.871 353.712 186.337 354.002 187.151H354.028C354.403 186.349 355.191 185.871 356.134 185.871C357.465 185.871 358.324 186.737 358.324 188.068V192.706H357.2V188.326C357.2 187.409 356.69 186.866 355.805 186.866C354.913 186.866 354.286 187.525 354.286 188.436V192.706H353.162V188.203C353.162 187.396 352.62 186.866 351.786 186.866C350.895 186.866 350.249 187.564 350.249 188.494V192.706H349.125ZM359.816 192.706V185.988H360.94V192.706H359.816ZM360.378 184.857C359.997 184.857 359.681 184.541 359.681 184.16C359.681 183.772 359.997 183.462 360.378 183.462C360.766 183.462 361.082 183.772 361.082 184.16C361.082 184.541 360.766 184.857 360.378 184.857ZM362.458 192.706V185.988H363.518V187.06H363.544C363.918 186.337 364.635 185.871 365.675 185.871C367.148 185.871 368.001 186.821 368.001 188.346V192.706H366.877V188.546C366.877 187.461 366.367 186.866 365.333 186.866C364.274 186.866 363.582 187.616 363.582 188.753V192.706H362.458ZM369.319 187.842C369.319 186.692 370.346 185.871 371.825 185.871C373.214 185.871 374.235 186.698 374.286 187.835H373.214C373.137 187.189 372.613 186.789 371.786 186.789C370.966 186.789 370.423 187.196 370.423 187.784C370.423 188.249 370.779 188.559 371.541 188.753L372.581 189.005C373.938 189.347 374.429 189.838 374.429 190.826C374.429 191.995 373.324 192.822 371.754 192.822C370.281 192.822 369.254 192.021 369.138 190.833H370.262C370.385 191.53 370.914 191.905 371.825 191.905C372.736 191.905 373.298 191.517 373.298 190.91C373.298 190.432 373.02 190.174 372.264 189.974L371.082 189.67C369.9 189.366 369.319 188.759 369.319 187.842Z" fill="white"/>
<path opacity="0.6" d="M24.1167 175.169H22.9539V165.847H28.6128V166.894H24.1167V170.098H28.2446V171.131H24.1167V175.169ZM29.8273 175.169V165.847H30.9513V175.169H29.8273ZM32.5276 175.169V168.451H33.6516V175.169H32.5276ZM33.0896 167.32C32.7084 167.32 32.3919 167.004 32.3919 166.622C32.3919 166.235 32.7084 165.925 33.0896 165.925C33.4772 165.925 33.7937 166.235 33.7937 166.622C33.7937 167.004 33.4772 167.32 33.0896 167.32ZM37.9022 174.232C39.0715 174.232 39.8531 173.263 39.8531 171.784C39.8531 170.305 39.0715 169.323 37.9022 169.323C36.7459 169.323 35.9901 170.279 35.9901 171.784C35.9901 173.289 36.7459 174.232 37.9022 174.232ZM37.941 177.701C36.4616 177.701 35.2924 176.868 35.1051 175.724H36.2614C36.481 176.338 37.1464 176.745 37.9862 176.745C39.149 176.745 39.8531 176.073 39.8531 175.072V174.013H39.8273C39.4138 174.743 38.6193 175.221 37.6761 175.221C35.9642 175.221 34.8402 173.871 34.8402 171.784C34.8402 169.678 35.9642 168.334 37.7019 168.334C38.6516 168.334 39.4397 168.799 39.8854 169.581H39.9048V168.451H40.9771V175.033C40.9771 176.635 39.795 177.701 37.941 177.701ZM42.5017 175.169V165.847H43.6257V169.523H43.6515C44.0262 168.774 44.7626 168.334 45.7833 168.334C47.2562 168.334 48.1476 169.329 48.1476 170.828V175.169H47.0236V171.035C47.0236 169.969 46.4874 169.329 45.4345 169.329C44.3169 169.329 43.6257 170.091 43.6257 171.254V175.169H42.5017ZM49.937 166.829H51.0611V168.451H52.366V169.374H51.0611V173.367C51.0611 173.98 51.3195 174.258 51.8944 174.258C52.0236 174.258 52.282 174.239 52.3595 174.226V175.169C52.2238 175.201 51.9138 175.221 51.6489 175.221C50.4151 175.221 49.937 174.717 49.937 173.425V169.374H48.9357V168.451H49.937V166.829Z" fill="white"/>
<path d="M28.7292 191.762V192.809H22.954V183.487H28.7292V184.533H24.1168V187.524H28.4902V188.558H24.1168V191.762H28.7292ZM31.4294 192.809H30.2666V183.487H31.4294V188.035H31.494L35.609 183.487H37.0754L33.2447 187.615L37.4178 192.809H35.932L32.4372 188.442L31.4294 189.553V192.809ZM41.0676 192.964C38.8906 192.964 37.6309 191.09 37.6309 188.145C37.6309 185.225 38.9036 183.332 41.0676 183.332C43.2317 183.332 44.4914 185.212 44.4914 188.138C44.4914 191.084 43.2382 192.964 41.0676 192.964ZM41.0676 191.949C42.5211 191.949 43.3221 190.47 43.3221 188.145C43.3221 185.851 42.5082 184.353 41.0676 184.353C39.6271 184.353 38.8002 185.864 38.8002 188.138C38.8002 190.464 39.6077 191.949 41.0676 191.949ZM46.1064 192.809L50.3247 184.546V184.521H45.3053V183.487H51.4746V184.566L47.3273 192.809H46.1064ZM54.7045 188.506V187.524H55.8221C56.8944 187.524 57.6438 186.833 57.6438 185.89C57.6438 184.966 57.0172 184.34 55.835 184.34C54.7627 184.34 54.0521 184.953 53.9487 185.929H52.8311C52.9603 184.346 54.136 183.332 55.8867 183.332C57.5533 183.332 58.813 184.333 58.813 185.735C58.813 186.904 58.0637 187.744 56.9009 187.951V187.977C58.3092 188.061 59.2135 188.933 59.2135 190.244C59.2135 191.846 57.7536 192.964 55.9254 192.964C53.9745 192.964 52.7278 191.885 52.6438 190.341H53.7614C53.8647 191.297 54.6593 191.956 55.9125 191.956C57.1464 191.956 58.0314 191.258 58.0314 190.283C58.0314 189.185 57.2045 188.506 55.8738 188.506H54.7045Z" fill="white"/>
<path opacity="0.6" d="M103.966 175.324C101.395 175.324 99.7667 173.457 99.7667 170.505C99.7667 167.579 101.414 165.692 103.966 165.692C105.994 165.692 107.538 166.926 107.835 168.787H106.659C106.362 167.566 105.296 166.765 103.966 166.765C102.144 166.765 100.962 168.237 100.962 170.505C100.962 172.792 102.131 174.252 103.972 174.252C105.342 174.252 106.324 173.593 106.659 172.456H107.835C107.409 174.297 106.026 175.324 103.966 175.324ZM109.095 175.169V165.847H110.219V175.169H109.095ZM113.953 174.329C115.012 174.329 115.826 173.586 115.826 172.617V172.068L114.03 172.178C113.126 172.236 112.609 172.637 112.609 173.27C112.609 173.909 113.145 174.329 113.953 174.329ZM113.701 175.285C112.364 175.285 111.466 174.478 111.466 173.27C111.466 172.12 112.351 171.396 113.901 171.306L115.826 171.196V170.634C115.826 169.814 115.283 169.323 114.353 169.323C113.488 169.323 112.945 169.73 112.803 170.389H111.718C111.795 169.226 112.79 168.334 114.379 168.334C115.955 168.334 116.95 169.187 116.95 170.524V175.169H115.884V174.013H115.858C115.458 174.781 114.605 175.285 113.701 175.285ZM118.261 170.305C118.261 169.155 119.289 168.334 120.768 168.334C122.157 168.334 123.177 169.161 123.229 170.298H122.157C122.079 169.652 121.556 169.252 120.729 169.252C119.909 169.252 119.366 169.659 119.366 170.246C119.366 170.712 119.721 171.022 120.484 171.215L121.524 171.467C122.88 171.81 123.371 172.301 123.371 173.289C123.371 174.458 122.267 175.285 120.697 175.285C119.224 175.285 118.197 174.484 118.081 173.296H119.205C119.327 173.993 119.857 174.368 120.768 174.368C121.679 174.368 122.241 173.98 122.241 173.373C122.241 172.895 121.963 172.637 121.207 172.436L120.025 172.133C118.843 171.829 118.261 171.222 118.261 170.305ZM124.424 170.305C124.424 169.155 125.451 168.334 126.931 168.334C128.32 168.334 129.34 169.161 129.392 170.298H128.32C128.242 169.652 127.719 169.252 126.892 169.252C126.072 169.252 125.529 169.659 125.529 170.246C125.529 170.712 125.884 171.022 126.646 171.215L127.686 171.467C129.043 171.81 129.534 172.301 129.534 173.289C129.534 174.458 128.429 175.285 126.86 175.285C125.387 175.285 124.36 174.484 124.243 173.296H125.367C125.49 173.993 126.02 174.368 126.931 174.368C127.842 174.368 128.404 173.98 128.404 173.373C128.404 172.895 128.126 172.637 127.37 172.436L126.188 172.133C125.006 171.829 124.424 171.222 124.424 170.305Z" fill="white"/>
<path d="M107.99 188.952C107.99 191.471 106.524 192.964 104.036 192.964C101.433 192.964 99.7665 191.064 99.7665 188.099C99.7665 185.186 101.427 183.332 104.036 183.332C106.052 183.332 107.583 184.527 107.932 186.381H106.711C106.323 185.121 105.348 184.404 104.036 184.404C102.118 184.404 100.962 185.787 100.962 188.093C100.962 190.438 102.137 191.891 104.036 191.891C105.69 191.891 106.827 190.819 106.827 189.256V189.088H104.198V188.067H107.99V188.952ZM114.825 186.09V192.809H113.759V191.717H113.733C113.332 192.492 112.635 192.925 111.601 192.925C110.135 192.925 109.275 191.975 109.275 190.451V186.09H110.4V190.25C110.4 191.342 110.91 191.93 111.95 191.93C113.042 191.93 113.701 191.181 113.701 190.037V186.09H114.825ZM118.978 186.949C117.925 186.949 117.189 187.757 117.118 188.875H120.768C120.742 187.75 120.038 186.949 118.978 186.949ZM120.742 190.884H121.846C121.653 192.059 120.516 192.925 119.049 192.925C117.124 192.925 115.955 191.588 115.955 189.475C115.955 187.389 117.144 185.974 118.998 185.974C120.813 185.974 121.93 187.292 121.93 189.327V189.753H117.111V189.818C117.111 191.103 117.867 191.949 119.075 191.949C119.928 191.949 120.555 191.517 120.742 190.884ZM122.951 187.944C122.951 186.794 123.978 185.974 125.458 185.974C126.846 185.974 127.867 186.801 127.919 187.938H126.846C126.769 187.292 126.246 186.891 125.419 186.891C124.598 186.891 124.056 187.298 124.056 187.886C124.056 188.351 124.411 188.661 125.173 188.855L126.213 189.107C127.57 189.449 128.061 189.94 128.061 190.929C128.061 192.098 126.956 192.925 125.387 192.925C123.914 192.925 122.887 192.124 122.77 190.935H123.894C124.017 191.633 124.547 192.008 125.458 192.008C126.368 192.008 126.93 191.62 126.93 191.013C126.93 190.535 126.653 190.276 125.897 190.076L124.715 189.772C123.533 189.469 122.951 188.862 122.951 187.944ZM129.592 184.469H130.716V186.09H132.021V187.014H130.716V191.006C130.716 191.62 130.974 191.898 131.549 191.898C131.678 191.898 131.937 191.878 132.014 191.865V192.809C131.879 192.841 131.569 192.86 131.304 192.86C130.07 192.86 129.592 192.356 129.592 191.064V187.014H128.591V186.09H129.592V184.469Z" fill="white"/>
<path opacity="0.6" d="M182.811 175.169L181.874 172.501H178.166L177.23 175.169H176.009L179.446 165.847H180.595L184.032 175.169H182.811ZM180.001 167.262L178.509 171.513H181.532L180.04 167.262H180.001ZM184.982 175.169V168.451H186.106V175.169H184.982ZM185.544 167.32C185.163 167.32 184.846 167.004 184.846 166.622C184.846 166.235 185.163 165.925 185.544 165.925C185.931 165.925 186.248 166.235 186.248 166.622C186.248 167.004 185.931 167.32 185.544 167.32ZM187.624 175.169V168.451H188.683V169.549H188.709C188.929 168.806 189.549 168.334 190.337 168.334C190.531 168.334 190.699 168.367 190.789 168.38V169.471C190.699 169.439 190.46 169.407 190.188 169.407C189.316 169.407 188.748 170.033 188.748 170.983V175.169H187.624ZM196.965 170.653H195.867C195.705 169.923 195.137 169.323 194.148 169.323C192.986 169.323 192.197 170.285 192.197 171.81C192.197 173.373 192.998 174.297 194.161 174.297C195.079 174.297 195.679 173.812 195.873 173.005H196.978C196.803 174.342 195.679 175.285 194.155 175.285C192.294 175.285 191.054 173.974 191.054 171.81C191.054 169.691 192.288 168.334 194.142 168.334C195.821 168.334 196.823 169.445 196.965 170.653ZM198.011 175.169V168.451H199.071V169.549H199.097C199.316 168.806 199.936 168.334 200.725 168.334C200.918 168.334 201.086 168.367 201.177 168.38V169.471C201.086 169.439 200.847 169.407 200.576 169.407C199.704 169.407 199.135 170.033 199.135 170.983V175.169H198.011ZM204.181 174.329C205.24 174.329 206.054 173.586 206.054 172.617V172.068L204.258 172.178C203.354 172.236 202.837 172.637 202.837 173.27C202.837 173.909 203.373 174.329 204.181 174.329ZM203.929 175.285C202.591 175.285 201.693 174.478 201.693 173.27C201.693 172.12 202.579 171.396 204.129 171.306L206.054 171.196V170.634C206.054 169.814 205.511 169.323 204.581 169.323C203.715 169.323 203.173 169.73 203.031 170.389H201.945C202.023 169.226 203.018 168.334 204.607 168.334C206.183 168.334 207.178 169.187 207.178 170.524V175.169H206.112V174.013H206.086C205.686 174.781 204.833 175.285 203.929 175.285ZM208.967 175.169V169.374H208.031V168.451H208.967V167.701C208.967 166.409 209.568 165.796 210.808 165.796C211.06 165.796 211.332 165.821 211.493 165.847V166.758C211.358 166.739 211.17 166.719 210.983 166.719C210.376 166.719 210.085 167.042 210.085 167.708V168.451H211.461V169.374H210.091V175.169H208.967ZM212.985 166.829H214.109V168.451H215.414V169.374H214.109V173.367C214.109 173.98 214.368 174.258 214.943 174.258C215.072 174.258 215.33 174.239 215.408 174.226V175.169C215.272 175.201 214.962 175.221 214.697 175.221C213.463 175.221 212.985 174.717 212.985 173.425V169.374H211.984V168.451H212.985V166.829Z" fill="white"/>
<path d="M182.811 192.809L181.874 190.141H178.166L177.23 192.809H176.009L179.446 183.487H180.595L184.032 192.809H182.811ZM180.001 184.902L178.509 189.152H181.532L180.04 184.902H180.001ZM186.849 188.506V187.524H187.966C189.038 187.524 189.788 186.833 189.788 185.89C189.788 184.966 189.161 184.34 187.979 184.34C186.907 184.34 186.196 184.953 186.093 185.929H184.975C185.104 184.346 186.28 183.332 188.031 183.332C189.697 183.332 190.957 184.333 190.957 185.735C190.957 186.904 190.208 187.744 189.045 187.951V187.977C190.453 188.061 191.358 188.933 191.358 190.244C191.358 191.846 189.898 192.964 188.07 192.964C186.119 192.964 184.872 191.885 184.788 190.341H185.905C186.009 191.297 186.803 191.956 188.057 191.956C189.29 191.956 190.175 191.258 190.175 190.283C190.175 189.185 189.349 188.506 188.018 188.506H186.849ZM195.983 192.964C194.013 192.964 192.604 191.846 192.604 190.289C192.604 189.126 193.405 188.17 194.607 187.893V187.867C193.599 187.557 192.973 186.762 192.973 185.78C192.973 184.372 194.252 183.332 195.983 183.332C197.727 183.332 198.987 184.365 198.987 185.787C198.987 186.756 198.373 187.544 197.359 187.867V187.893C198.567 188.177 199.368 189.133 199.368 190.289C199.368 191.853 197.96 192.964 195.983 192.964ZM195.983 191.949C197.268 191.949 198.179 191.219 198.179 190.205C198.179 189.178 197.268 188.455 195.983 188.455C194.704 188.455 193.787 189.185 193.787 190.205C193.787 191.219 194.704 191.949 195.983 191.949ZM195.983 187.434C197.068 187.434 197.837 186.794 197.837 185.89C197.837 184.973 197.075 184.333 195.983 184.333C194.891 184.333 194.129 184.979 194.129 185.89C194.129 186.794 194.891 187.434 195.983 187.434ZM203.974 192.964C201.797 192.964 200.537 191.09 200.537 188.145C200.537 185.225 201.81 183.332 203.974 183.332C206.138 183.332 207.398 185.212 207.398 188.138C207.398 191.084 206.144 192.964 203.974 192.964ZM203.974 191.949C205.427 191.949 206.228 190.47 206.228 188.145C206.228 185.851 205.414 184.353 203.974 184.353C202.533 184.353 201.706 185.864 201.706 188.138C201.706 190.464 202.514 191.949 203.974 191.949Z" fill="white"/>
<path opacity="0.6" d="M350.201 25.7281H353.527C355.278 25.7281 356.512 26.9555 356.512 28.7191C356.512 30.4891 355.265 31.7229 353.515 31.7229H351.363V35.0498H350.201V25.7281ZM351.363 26.7617V30.6894H353.224C354.555 30.6894 355.317 29.9594 355.317 28.7191C355.317 27.4852 354.561 26.7617 353.224 26.7617H351.363ZM359.309 34.21C360.368 34.21 361.182 33.4671 361.182 32.4981V31.949L359.387 32.0589C358.482 32.117 357.965 32.5175 357.965 33.1506C357.965 33.7901 358.502 34.21 359.309 34.21ZM359.057 35.1661C357.72 35.1661 356.822 34.3586 356.822 33.1506C356.822 32.0007 357.707 31.2772 359.257 31.1868L361.182 31.077V30.5149C361.182 29.6945 360.64 29.2036 359.71 29.2036C358.844 29.2036 358.301 29.6106 358.159 30.2695H357.074C357.151 29.1067 358.146 28.2152 359.735 28.2152C361.312 28.2152 362.306 29.0679 362.306 30.4051V35.0498H361.241V33.8935H361.215C360.814 34.6622 359.962 35.1661 359.057 35.1661ZM363.734 35.0498V28.3315H364.794V29.4297H364.819C365.039 28.6868 365.659 28.2152 366.447 28.2152C366.641 28.2152 366.809 28.2475 366.899 28.2604V29.3522C366.809 29.3199 366.57 29.2876 366.299 29.2876C365.427 29.2876 364.858 29.9142 364.858 30.8638V35.0498H363.734ZM367.875 35.0498V28.3315H368.999V35.0498H367.875ZM368.437 27.201C368.056 27.201 367.739 26.8845 367.739 26.5033C367.739 26.1157 368.056 25.8057 368.437 25.8057C368.825 25.8057 369.141 26.1157 369.141 26.5033C369.141 26.8845 368.825 27.201 368.437 27.201ZM370.401 30.1855C370.401 29.0356 371.428 28.2152 372.907 28.2152C374.296 28.2152 375.317 29.0421 375.368 30.179H374.296C374.219 29.533 373.695 29.1325 372.868 29.1325C372.048 29.1325 371.505 29.5395 371.505 30.1273C371.505 30.5925 371.861 30.9025 372.623 31.0963L373.663 31.3483C375.02 31.6906 375.511 32.1816 375.511 33.17C375.511 34.3392 374.406 35.1661 372.836 35.1661C371.363 35.1661 370.336 34.3651 370.22 33.1764H371.344C371.467 33.8741 371.996 34.2488 372.907 34.2488C373.818 34.2488 374.38 33.8612 374.38 33.2539C374.38 32.7759 374.102 32.5175 373.346 32.3173L372.164 32.0136C370.982 31.71 370.401 31.1028 370.401 30.1855Z" fill="white"/>
<path d="M24.0543 92.9443V71.1938H31.7265C38.1778 71.1938 42.0215 75.158 42.0215 82.0012V82.0314C42.0215 88.9047 38.208 92.9443 31.7265 92.9443H24.0543ZM27.4307 90.0201H31.41C36.0224 90.0201 38.5697 87.2015 38.5697 82.0615V82.0314C38.5697 76.9216 35.9922 74.1029 31.41 74.1029H27.4307V90.0201ZM41.9618 92.9443L49.1969 82.0012V81.956L42.0372 71.1938H46.0617L51.4428 79.6197H51.5785L56.9746 71.1938H60.7882L53.4174 82.0615V82.1218L60.6525 92.9443H56.7033L51.277 84.639H51.1564L45.6999 92.9443H41.9618ZM62.8538 92.9443V71.1938H71.5359C75.3946 71.1938 77.9269 73.3492 77.9269 76.6352V76.6653C77.9269 78.9565 76.1935 81.0818 73.9024 81.4134V81.4737C76.9924 81.7902 78.9971 83.9155 78.9971 86.7794V86.8096C78.9971 90.6231 76.2086 92.9443 71.5811 92.9443H62.8538ZM70.722 73.9522H66.2302V80.4638H69.9683C72.9528 80.4638 74.5656 79.2579 74.5656 77.0723V77.0422C74.5656 75.0525 73.1638 73.9522 70.722 73.9522ZM70.6617 83.0714H66.2302V90.186H70.8878C73.9175 90.186 75.5454 88.965 75.5454 86.6438V86.6136C75.5454 84.2773 73.8873 83.0714 70.6617 83.0714Z" fill="white"/>
<path opacity="0.6" d="M350.958 108.122V106.507H347.055V105.63C347.717 104.402 348.627 102.986 350.463 100.354H351.895V105.657H352.993V106.507H351.895V108.122H350.958ZM348.013 105.635V105.657H350.958V101.162H350.942C349.472 103.261 348.627 104.558 348.013 105.635ZM359.604 100.225C361.805 100.225 363.183 101.775 363.183 104.241C363.183 106.706 361.805 108.251 359.604 108.251C357.402 108.251 356.024 106.706 356.024 104.241C356.024 101.775 357.402 100.225 359.604 100.225ZM359.604 101.118C358.015 101.118 357.02 102.324 357.02 104.241C357.02 106.152 358.015 107.358 359.604 107.358C361.192 107.358 362.188 106.152 362.188 104.241C362.188 102.324 361.192 101.118 359.604 101.118ZM368.895 104.359H367.98C367.845 103.751 367.372 103.25 366.548 103.25C365.579 103.25 364.922 104.052 364.922 105.323C364.922 106.626 365.59 107.395 366.559 107.395C367.323 107.395 367.824 106.992 367.985 106.319H368.906C368.76 107.433 367.824 108.219 366.553 108.219C365.003 108.219 363.969 107.126 363.969 105.323C363.969 103.557 364.998 102.427 366.543 102.427C367.942 102.427 368.777 103.352 368.895 104.359ZM370.069 101.172H371.005V102.523H372.093V103.293H371.005V106.62C371.005 107.132 371.221 107.363 371.7 107.363C371.807 107.363 372.023 107.347 372.087 107.336V108.122C371.974 108.149 371.716 108.165 371.495 108.165C370.467 108.165 370.069 107.745 370.069 106.669V103.293H369.234V102.523H370.069V101.172ZM373.735 109.667H372.954L373.476 106.927H374.472L373.735 109.667ZM350.474 120.122V113.382H350.452L348.396 114.863V113.84L350.463 112.354H351.41V120.122H350.474ZM354.963 116.537V115.719H355.894C356.788 115.719 357.413 115.143 357.413 114.357C357.413 113.587 356.89 113.065 355.905 113.065C355.012 113.065 354.419 113.576 354.333 114.389H353.402C353.51 113.07 354.489 112.225 355.948 112.225C357.337 112.225 358.387 113.059 358.387 114.227C358.387 115.202 357.762 115.902 356.793 116.074V116.095C357.967 116.165 358.721 116.892 358.721 117.985C358.721 119.32 357.504 120.251 355.981 120.251C354.355 120.251 353.316 119.352 353.246 118.066H354.177C354.263 118.862 354.925 119.411 355.97 119.411C356.998 119.411 357.736 118.83 357.736 118.017C357.736 117.102 357.046 116.537 355.938 116.537H354.963ZM360.675 118.83C360.33 118.83 360.061 118.561 360.061 118.216C360.061 117.872 360.33 117.603 360.675 117.603C361.019 117.603 361.289 117.872 361.289 118.216C361.289 118.561 361.019 118.83 360.675 118.83ZM360.675 114.868C360.33 114.868 360.061 114.599 360.061 114.254C360.061 113.91 360.33 113.641 360.675 113.641C361.019 113.641 361.289 113.91 361.289 114.254C361.289 114.599 361.019 114.868 360.675 114.868ZM364.287 116.537V115.719H365.218C366.112 115.719 366.736 115.143 366.736 114.357C366.736 113.587 366.214 113.065 365.229 113.065C364.335 113.065 363.743 113.576 363.657 114.389H362.726C362.834 113.07 363.813 112.225 365.272 112.225C366.661 112.225 367.711 113.059 367.711 114.227C367.711 115.202 367.086 115.902 366.117 116.074V116.095C367.291 116.165 368.045 116.892 368.045 117.985C368.045 119.32 366.828 120.251 365.304 120.251C363.679 120.251 362.64 119.352 362.57 118.066H363.501C363.587 118.862 364.249 119.411 365.294 119.411C366.322 119.411 367.059 118.83 367.059 118.017C367.059 117.102 366.37 116.537 365.261 116.537H364.287ZM371.947 120.251C370.133 120.251 369.083 118.69 369.083 116.235C369.083 113.802 370.144 112.225 371.947 112.225C373.751 112.225 374.801 113.791 374.801 116.23C374.801 118.685 373.756 120.251 371.947 120.251ZM371.947 119.406C373.159 119.406 373.826 118.173 373.826 116.235C373.826 114.324 373.148 113.075 371.947 113.075C370.747 113.075 370.058 114.335 370.058 116.23C370.058 118.168 370.731 119.406 371.947 119.406Z" fill="white"/>
<path d="M322.514 93.3061C316.349 93.3061 312.43 88.965 312.43 82.0615V82.0465C312.43 75.1429 316.349 70.832 322.514 70.832C327.307 70.832 330.909 73.7864 331.588 78.0822L331.618 78.2179H328.272L328.181 77.9164C327.458 75.369 325.438 73.8165 322.514 73.8165C318.474 73.8165 315.881 77.012 315.881 82.0465V82.0615C315.881 87.096 318.489 90.3216 322.514 90.3216C325.408 90.3216 327.412 88.8143 328.226 86.0559L328.272 85.9202H331.618L331.603 86.071C330.924 90.397 327.322 93.3061 322.514 93.3061ZM334.678 92.9443V71.1938H342.35C348.801 71.1938 352.645 75.158 352.645 82.0012V82.0314C352.645 88.9047 348.831 92.9443 342.35 92.9443H334.678ZM338.054 90.0201H342.033C346.646 90.0201 349.193 87.2015 349.193 82.0615V82.0314C349.193 76.9216 346.616 74.1029 342.033 74.1029H338.054V90.0201ZM365.231 93.3061C359.006 93.3061 355.087 88.965 355.087 81.9711V81.956C355.087 75.0977 359.006 70.832 365.186 70.832C370.28 70.832 373.476 73.7713 374.38 77.6903L374.441 77.9616H370.974L370.929 77.7958C370.009 75.2786 368.035 73.8165 365.201 73.8165C361.041 73.8165 358.523 76.8462 358.523 81.9409V81.956C358.523 87.1562 361.116 90.3216 365.261 90.3216C368.788 90.3216 371.23 88.0908 371.275 84.7898V84.428H365.563V81.6696H374.606V83.9004C374.606 89.794 371.125 93.3061 365.231 93.3061Z" fill="white"/>
<path d="M282.789 83.7896C210.454 44.491 143.454 63.5086 114 80.4343" stroke="white" stroke-width="1.0161" stroke-dasharray="6.1 6.1"/>
<path d="M226 63.5227C176.925 54.5919 135.355 68.1263 113.886 80.5001" stroke="white" stroke-width="1.0161"/>
<g clip-path="url(#clip0_2_4352)">
<path d="M224.29 64.4402L218.991 70.576L217.362 70.2887L220.604 63.7899L216.239 63.02L214.438 65.3538L213.217 65.1384L214.698 61.4224L214.55 57.4191L215.771 57.6345L216.684 60.4471L221.049 61.217L220.176 53.9924L221.805 54.2797L224.735 61.8671L229.17 62.6495C229.494 62.7067 229.781 62.897 229.969 63.1787C230.156 63.4604 230.228 63.8103 230.169 64.1515C230.11 64.4928 229.925 64.7973 229.655 64.9982C229.384 65.199 229.05 65.2798 228.726 65.2226L224.29 64.4402Z" fill="white"/>
</g>
<path fill-rule="evenodd" clip-rule="evenodd" d="M109.146 93.7117C113.409 93.7117 116.864 90.0097 116.864 85.443C116.864 80.8763 113.409 77.1743 109.146 77.1743C104.884 77.1743 101.429 80.8763 101.429 85.443C101.429 90.0097 104.884 93.7117 109.146 93.7117ZM106.288 87.6349L111.081 84.9813L110.182 88.3418L111.058 88.6111L112.362 83.7382L107.54 82.2568L107.303 83.1428L110.629 84.1644L105.836 86.8179L106.288 87.6349Z" fill="white"/>
<path fill-rule="evenodd" clip-rule="evenodd" d="M278.401 90.3024C280.597 94.3065 285.607 95.743 289.591 93.5109C293.575 91.2787 295.025 86.2233 292.829 82.2193C290.633 78.2152 285.623 76.7787 281.639 79.0108C277.655 81.2429 276.206 86.2984 278.401 90.3024ZM281.999 84.1795L286.714 87.1257L283.328 87.9214L283.531 88.8158L288.441 87.6621L287.325 82.7427L286.433 82.9525L287.202 86.345L282.487 83.3987L281.999 84.1795Z" fill="white"/>
<path d="M1.08389 143.324L396.879 143.324" stroke="white" stroke-opacity="0.1" stroke-width="1.10249"/>
<defs>
<clipPath id="clip0_2_4352">
<rect width="20.9474" height="19.8449" rx="9.92244" transform="matrix(-0.170149 0.985418 -0.984796 -0.173717 233.036 54.022)" fill="white"/>
</clipPath>
</defs>
</svg>
